<svg width="15" height="18" viewBox="0 0 15 18" fill="none" xmlns="http://www.w3.org/2000/svg">
<path d="M14.0625 4.5H11.25V3.6C11.25 2.64522 10.8549 1.72955 10.1517 1.05442C9.44839 0.379285 8.49456 0 7.5 0C6.50544 0 5.55161 0.379285 4.84835 1.05442C4.14509 1.72955 3.75 2.64522 3.75 3.6V4.5H0.9375C0.68886 4.5 0.450403 4.59482 0.274588 4.7636C0.0987722 4.93239 0 5.1613 0 5.4V15.3C0 16.0161 0.296316 16.7028 0.823762 17.2092C1.35121 17.7155 2.06658 18 2.8125 18H12.1875C12.9334 18 13.6488 17.7155 14.1762 17.2092C14.7037 16.7028 15 16.0161 15 15.3V5.4C15 5.1613 14.9012 4.93239 14.7254 4.7636C14.5496 4.59482 14.3111 4.5 14.0625 4.5ZM5.625 3.6C5.625 3.12261 5.82254 2.66477 6.17418 2.32721C6.52581 1.98964 7.00272 1.8 7.5 1.8C7.99728 1.8 8.47419 1.98964 8.82582 2.32721C9.17746 2.66477 9.375 3.12261 9.375 3.6V4.5H5.625V3.6ZM13.125 15.3C13.125 15.5387 13.0262 15.7676 12.8504 15.9364C12.6746 16.1052 12.4361 16.2 12.1875 16.2H2.8125C2.56386 16.2 2.3254 16.1052 2.14959 15.9364C1.97377 15.7676 1.875 15.5387 1.875 15.3V6.3H3.75V7.2C3.75 7.43869 3.84877 7.66761 4.02459 7.8364C4.2004 8.00518 4.43886 8.1 4.6875 8.1C4.93614 8.1 5.1746 8.00518 5.35041 7.8364C5.52623 7.66761 5.625 7.43869 5.625 7.2V6.3H9.375V7.2C9.375 7.43869 9.47377 7.66761 9.64959 7.8364C9.8254 8.00518 10.0639 8.1 10.3125 8.1C10.5611 8.1 10.7996 8.00518 10.9754 7.8364C11.1512 7.66761 11.25 7.43869 11.25 7.2V6.3H13.125V15.3Z" fill="black"/>
</svg>
