<?xml version="1.0" encoding="UTF-8"?>
<svg version="1.1" xmlns="http://www.w3.org/2000/svg" width="72" height="70">
<path d="M0 0 C4.00517396 1.60373148 6.6771098 4.42113986 9.640625 7.4453125 C10.43119293 8.24012527 10.43119293 8.24012527 11.23773193 9.05099487 C12.91325675 10.73767825 14.58167722 12.43119564 16.25 14.125 C17.38755851 15.27259388 18.52557436 16.41973461 19.6640625 17.56640625 C22.44803465 20.37238137 25.2256576 23.18450464 28 26 C32.00517396 24.39626852 34.6771098 21.57886014 37.640625 18.5546875 C38.43119293 17.75987473 38.43119293 17.75987473 39.23773193 16.94900513 C40.91325675 15.26232175 42.58167722 13.56880436 44.25 11.875 C45.38755851 10.72740612 46.52557436 9.58026539 47.6640625 8.43359375 C50.44803465 5.62761863 53.2256576 2.81549536 56 0 C58.8605891 1.35937085 60.85927699 2.64520469 63 5 C61.39626852 9.00517396 58.57886014 11.6771098 55.5546875 14.640625 C54.75987473 15.43119293 54.75987473 15.43119293 53.94900513 16.23773193 C52.26232175 17.91325675 50.56880436 19.58167722 48.875 21.25 C47.72740612 22.38755851 46.58026539 23.52557436 45.43359375 24.6640625 C42.62761863 27.44803465 39.81549536 30.2256576 37 33 C38.63778045 37.19625909 41.73323182 39.98676785 44.8828125 43.078125 C45.74421341 43.93528107 45.74421341 43.93528107 46.62301636 44.80975342 C48.4523581 46.62792945 50.28854193 48.43901492 52.125 50.25 C53.36894774 51.48391329 54.6124427 52.71828322 55.85546875 53.953125 C58.89842367 56.97406743 61.94753254 59.98867092 65 63 C63.64062915 65.8605891 62.35479531 67.85927699 60 70 C55.80374091 68.36221955 53.01323215 65.26676818 49.921875 62.1171875 C49.35043762 61.54292023 48.77900024 60.96865295 48.19024658 60.37698364 C46.37207055 58.5476419 44.56098508 56.71145807 42.75 54.875 C41.51608671 53.63105226 40.28171678 52.3875573 39.046875 51.14453125 C36.02593257 48.10157633 33.01132908 45.05246746 30 42 C25.80374091 43.63778045 23.01323215 46.73323182 19.921875 49.8828125 C19.35043762 50.45707977 18.77900024 51.03134705 18.19024658 51.62301636 C16.37207055 53.4523581 14.56098508 55.28854193 12.75 57.125 C11.51608671 58.36894774 10.28171678 59.6124427 9.046875 60.85546875 C6.02593257 63.89842367 3.01132908 66.94753254 0 70 C-2.8605891 68.64062915 -4.85927699 67.35479531 -7 65 C-5.36221955 60.80374091 -2.26676818 58.01323215 0.8828125 54.921875 C1.45707977 54.35043762 2.03134705 53.77900024 2.62301636 53.19024658 C4.4523581 51.37207055 6.28854193 49.56098508 8.125 47.75 C9.36894774 46.51608671 10.6124427 45.28171678 11.85546875 44.046875 C14.89842367 41.02593257 17.94753254 38.01132908 21 35 C19.39626852 30.99482604 16.57886014 28.3228902 13.5546875 25.359375 C12.75987473 24.56880707 12.75987473 24.56880707 11.94900513 23.76226807 C10.26232175 22.08674325 8.56880436 20.41832278 6.875 18.75 C5.72740612 17.61244149 4.58026539 16.47442564 3.43359375 15.3359375 C0.62761863 12.55196535 -2.18450464 9.7743424 -5 7 C-3.64062915 4.1394109 -2.35479531 2.14072301 0 0 Z " fill="#7A7A7A" transform="translate(7,0)"/>
</svg>
