<svg width="42" height="42" viewBox="0 0 42 42" fill="none" xmlns="http://www.w3.org/2000/svg">
<path d="M34 32.676C36.06 32.374 37.526 31.788 38.656 30.656C41 28.314 41 24.542 41 17C41 9.458 41 5.686 38.656 3.344C36.312 1.002 32.542 1 25 1H17C9.458 1 5.686 1 3.344 3.344C1.002 5.688 1 9.458 1 17C1 24.542 1 28.314 3.344 30.656C4.96 32.274 7.256 32.776 11 32.93M31 11H11" stroke="#AA0F4E" stroke-width="1.5" stroke-linecap="round" stroke-linejoin="round"/>
<path d="M26 26C26 27.3261 25.4732 28.5979 24.5355 29.5355C23.5979 30.4732 22.3261 31 21 31C19.6739 31 18.4021 30.4732 17.4645 29.5355C16.5268 28.5979 16 27.3261 16 26C16 24.6739 16.5268 23.4021 17.4645 22.4645C18.4021 21.5268 19.6739 21 21 21C22.3261 21 23.5979 21.5268 24.5355 22.4645C25.4732 23.4021 26 24.6739 26 26Z" stroke="#AA0F4E" stroke-width="1.5" stroke-linecap="round" stroke-linejoin="round"/>
<path d="M16 26C16 34.132 19.444 38.74 21 41L24 35L27.5 37L31 39C29.53 37.578 28.012 33.094 28.012 33.094" stroke="#AA0F4E" stroke-width="1.5" stroke-linecap="round" stroke-linejoin="round"/>
</svg>
