<svg width="59" height="41" viewBox="0 0 59 41" fill="none" xmlns="http://www.w3.org/2000/svg">
<path fill-rule="evenodd" clip-rule="evenodd" d="M5.67226 20.8206C8.13051 22.6888 9.87588 20.9435 7.98302 18.8785L7.78636 18.6819C7.38102 18.2983 6.95424 17.938 6.50806 17.6027C6.041 17.2586 5.54934 16.9636 5.05769 16.6686C3.86902 16.0004 2.6185 15.4488 1.3236 15.0215C1.10519 14.914 0.852992 14.8976 0.622485 14.9759C0.391979 15.0543 0.202047 15.221 0.0944716 15.4394C-0.0131035 15.6579 -0.0295095 15.9101 0.0488626 16.1406C0.127235 16.3711 0.293965 16.561 0.512375 16.6686C1.56943 17.3815 2.4544 18.291 3.46228 19.1268C4.10962 19.7004 4.78974 20.233 5.50264 20.7247L5.67226 20.8206ZM29.4854 34.2156C29.4039 33.9874 29.2351 33.801 29.0161 33.6972C28.7971 33.5935 28.5459 33.581 28.3177 33.6625C28.0895 33.744 27.9031 33.9128 27.7993 34.1318C27.6956 34.3508 27.6831 34.602 27.7646 34.8302C27.9007 35.547 27.7467 36.2885 27.3365 36.8918C26.9263 37.4952 26.2934 37.911 25.5768 38.048C25.1432 38.0597 24.7132 37.967 24.3231 37.7776C23.9032 37.6162 23.519 37.374 23.1923 37.0647C22.9761 36.837 22.771 36.5991 22.5777 36.3518C22.4665 36.1775 22.3836 35.9867 22.3319 35.7864C22.2321 35.3188 22.3018 34.8308 22.5285 34.4098C22.7006 34.2377 22.8235 34.0657 22.971 33.8936C23.1763 33.6087 23.4352 33.3666 23.7331 33.1807C24.2736 32.8264 24.9059 32.6377 25.5522 32.6377C26.1985 32.6377 26.8307 32.8264 27.3713 33.1807C27.5281 33.3101 27.7277 33.376 27.9307 33.3652C28.1338 33.3545 28.3253 33.2678 28.4675 33.1226C28.6097 32.9773 28.6922 32.7839 28.6986 32.5807C28.705 32.3775 28.6349 32.1793 28.5021 32.0253C27.8979 31.4062 27.1412 30.9575 26.3081 30.7244C25.4751 30.4914 24.5954 30.4822 23.7577 30.6979C23.7522 30.3156 23.6943 29.936 23.5856 29.5695C23.5225 29.3987 23.4109 29.2501 23.2645 29.1419C23.1181 29.0337 22.9433 28.9706 22.7615 28.9604C22.5798 28.9503 22.399 28.9934 22.2414 29.0846C22.0839 29.1758 21.9564 29.311 21.8746 29.4736C21.8219 29.5838 21.7918 29.7035 21.7863 29.8256C21.7808 29.9477 21.8 30.0696 21.8427 30.1841C21.9779 30.5994 21.9779 31.047 21.8427 31.4624C21.0856 31.8965 20.4577 32.5244 20.0236 33.2815C19.9255 33.2913 19.8267 33.2913 19.7286 33.2815C19.3023 33.2995 18.8787 33.2063 18.4994 33.0111C18.0267 32.9004 17.5826 32.691 17.1966 32.3965C16.9779 32.178 16.7804 31.9393 16.6066 31.6836C16.477 31.5167 16.3848 31.3239 16.3362 31.1182C16.2569 30.6 16.3453 30.0701 16.5885 29.6057C16.8318 29.1414 17.2171 28.7669 17.6882 28.537C18.2264 28.1766 18.8596 27.9842 19.5073 27.9842C20.1551 27.9842 20.7882 28.1766 21.3264 28.537C21.4854 28.6723 21.69 28.7417 21.8985 28.7311C22.1069 28.7204 22.3034 28.6306 22.4479 28.4799C22.5923 28.3292 22.6737 28.1291 22.6754 27.9204C22.6771 27.7116 22.5991 27.5102 22.4572 27.3571C21.9588 26.8284 21.3433 26.424 20.6602 26.1764C19.9771 25.9288 19.2455 25.8448 18.524 25.9313C18.6117 25.245 18.5097 24.5479 18.229 23.9155C18.1402 23.6972 17.9706 23.5216 17.7555 23.4253C17.5403 23.3291 17.2963 23.3196 17.0744 23.3989C16.8524 23.4781 16.6696 23.64 16.5642 23.8508C16.4587 24.0616 16.4387 24.3049 16.5083 24.5301C16.593 24.891 16.595 25.2665 16.5142 25.6284C16.4333 25.9902 16.2716 26.3291 16.0412 26.6196C15.5641 26.8753 15.1261 27.1981 14.7408 27.5783C14.5992 27.6498 14.451 27.7074 14.2983 27.7504C13.8739 27.7497 13.4546 27.6575 13.0692 27.48C12.6492 27.3185 12.2651 27.0763 11.9384 26.7671C11.714 26.547 11.5085 26.3085 11.3238 26.0542C11.1967 25.8795 11.1125 25.6774 11.078 25.4642C10.9767 24.9386 11.0611 24.3942 11.3166 23.9239C11.5722 23.4535 11.9831 23.0865 12.4792 22.8855C13.0197 22.5312 13.652 22.3425 14.2983 22.3425C14.9446 22.3425 15.5768 22.5312 16.1174 22.8855C16.2762 22.9787 16.462 23.015 16.6442 22.9886C16.8264 22.9622 16.9942 22.8746 17.1201 22.7402C17.2459 22.6058 17.3223 22.4326 17.3366 22.249C17.351 22.0654 17.3024 21.8825 17.199 21.7301C16.4226 21.0379 15.4716 20.5712 14.4491 20.3806C13.4265 20.1899 12.3712 20.2826 11.3975 20.6485C10.3719 20.9804 9.49955 21.6695 8.93928 22.5905C8.23237 23.581 7.91793 24.7985 8.05677 26.0075C8.14281 26.5237 8.31734 27.0228 8.573 27.4824C8.92371 28.0282 9.33342 28.528 9.80213 28.982C10.515 29.5965 11.368 30.0341 12.285 30.2578C12.6603 30.3725 13.0454 30.4381 13.4403 30.4545C13.391 30.8545 13.391 31.259 13.4403 31.659C13.5287 32.1719 13.7121 32.6638 13.9812 33.1094C14.3138 33.6764 14.7227 34.1845 15.2078 34.6335C16.3919 35.638 17.9089 36.1633 19.4606 36.106C19.4739 36.1709 19.4739 36.2378 19.4606 36.3027C19.5417 36.8238 19.7261 37.3253 20.0014 37.7776C20.3333 38.3332 20.7463 38.8396 21.2281 39.2772C21.9312 39.8942 22.7744 40.3342 23.6864 40.5555C24.5856 40.8106 25.538 40.8106 26.4372 40.5555C27.0957 40.3521 27.7069 40.019 28.2346 39.5757C28.7624 39.1324 29.196 38.5879 29.51 37.9743C29.7808 37.3836 29.9189 36.7408 29.9146 36.091C29.9104 35.4412 29.7639 34.8002 29.4854 34.2132M26.5355 6.54547C26.8698 6.61103 27.1976 6.70116 27.5188 6.81588C29.215 7.50419 30.1491 5.70966 28.92 4.92302C28.3071 4.55899 27.6447 4.28574 26.9534 4.1118C25.4181 3.78155 23.8358 3.73158 22.2827 3.9643C20.9121 4.056 19.5354 3.99001 18.1799 3.76764L13.1429 1.87478C11.9777 1.38641 10.7731 1.01767 9.52926 0.768568C9.42449 0.777642 9.32272 0.808306 9.23038 0.858628C9.13803 0.90895 9.0571 0.977841 8.99268 1.06097C8.92826 1.14409 8.88173 1.23965 8.85605 1.34164C8.83036 1.44362 8.82605 1.54981 8.84341 1.65354C8.85994 1.83704 8.94036 2.00892 9.07064 2.1392C9.20092 2.26949 9.3728 2.3499 9.5563 2.36643C9.5563 2.36643 9.85129 2.51393 10.1217 2.66143C11.6458 3.44807 14.8637 5.46384 17.0515 6.57005C17.9488 7.08383 18.9444 7.40094 19.9769 7.50419L22.7522 6.93879C23.9873 6.62332 25.2619 6.4908 26.5355 6.54547ZM58.7755 0.451452C58.6479 0.24006 58.4419 0.0877779 58.2023 0.0278939C57.9628 -0.0319902 57.7093 0.00539516 57.4972 0.131878L53.1215 2.59014C52.3393 3.04146 51.5172 3.41998 50.6657 3.72093C50.1656 3.88123 49.642 3.95602 49.117 3.94218C48.2943 3.92812 47.4733 3.86243 46.6588 3.74552C45.9364 3.61913 45.2229 3.4467 44.5226 3.22928C43.4901 2.88513 42.5068 2.44264 41.4743 2.14765C40.6782 1.90775 39.8499 1.79168 39.0185 1.80349C38.3515 1.83299 37.7042 1.9641 37.0765 2.19681C36.2087 2.48443 35.3803 2.89004 34.6182 3.40136C34.0037 3.7701 28.3546 9.00127 27.8138 9.56667C26.8642 10.4614 26.0376 11.4782 25.3555 12.5903C24.8835 13.4261 24.6131 14.3603 24.5689 15.319C24.5141 15.8792 24.5875 16.4445 24.7834 16.9722C24.9793 17.4998 25.2926 17.976 25.6997 18.3648C26.2778 18.8219 26.9514 19.1432 27.6705 19.3049C28.3896 19.4666 29.1359 19.4646 29.8541 19.2989C31.1226 19.0433 32.3124 18.4877 33.3178 17.6765C34.3241 16.8767 35.2582 15.9999 36.1202 15.0461C37.3713 15.5723 38.6981 15.896 40.051 16.0048C40.6901 16.0786 41.3293 16.0786 41.9684 16.0048C42.5994 15.9131 43.2139 15.7492 43.8121 15.5132C45.1673 14.942 46.3949 14.1062 47.4233 13.0549C47.5132 12.9959 47.5901 12.919 47.6491 12.8291C47.7082 12.7392 47.7481 12.6381 47.7666 12.5321C47.785 12.4262 47.7815 12.3175 47.7563 12.2129C47.7311 12.1084 47.6847 12.0101 47.62 11.9241C47.5587 11.8369 47.4808 11.7627 47.3907 11.7056C47.3007 11.6485 47.2003 11.6097 47.0953 11.5915C46.9903 11.5732 46.8827 11.5758 46.7787 11.5991C46.6747 11.6225 46.5763 11.6661 46.4892 11.7275C45.3592 12.2093 44.1679 12.5319 42.9493 12.6862L40.8106 13.0549C40.3189 13.0549 39.8764 13.227 39.3848 13.2516C38.6165 13.3119 37.8447 13.3119 37.0765 13.2516C37.1018 13.1632 37.1018 13.0696 37.0765 12.9812C37.0031 12.9054 36.9153 12.8451 36.8181 12.8039C36.721 12.7627 36.6166 12.7415 36.5111 12.7415C36.4056 12.7415 36.3012 12.7627 36.204 12.8039C36.1069 12.8451 36.019 12.9054 35.9457 12.9812C34.7821 14.1366 33.5374 15.1936 32.2116 16.1523C31.4197 16.6997 30.5103 17.0533 29.5567 17.1848C28.897 17.2905 28.221 17.1692 27.6392 16.8407C27.4086 16.7141 27.2246 16.5168 27.1144 16.2778C27.0042 16.0388 26.9736 15.7708 27.0271 15.5132C27.1304 14.9527 27.3467 14.4168 27.6663 13.9399C28.2808 13.0812 28.9855 12.3027 29.7804 11.6046C30.9849 10.4025 32.2386 9.14877 33.5145 7.94668C34.3173 7.20416 35.1807 6.5299 36.0956 5.93091C36.5709 5.61133 37.0708 5.33273 37.5952 5.0951C38.5628 4.67068 39.6471 4.59255 40.6656 4.87386C41.6734 5.0951 42.6322 5.46384 43.64 5.75883C44.5201 5.98007 45.4124 6.13576 46.3171 6.2259C47.2021 6.27506 48.087 6.27506 48.972 6.2259C49.7586 6.20132 50.5379 6.05382 51.2803 5.78341C52.2561 5.37531 53.1939 4.88173 54.0827 4.30846L58.333 1.62896C58.5449 1.52748 58.7093 1.34797 58.7918 1.12802C58.8742 0.908078 58.8684 0.667209 58.7755 0.451452Z" fill="#AA0F4E"/>
<path fill-rule="evenodd" clip-rule="evenodd" d="M45.6264 25.3414C45.4762 24.9115 45.2963 24.4926 45.088 24.0877C44.3919 22.8959 43.5676 21.7839 42.6298 20.7715L39.9994 17.7724C39.865 17.6213 39.6789 17.5258 39.4777 17.5048C39.2766 17.4837 39.0748 17.5386 38.912 17.6586C38.7491 17.7787 38.637 17.9552 38.5976 18.1536C38.5583 18.352 38.5944 18.558 38.699 18.7311L40.641 22.2218C41.2802 23.2445 41.8374 24.3097 42.3127 25.4176C42.6101 26.0371 42.8092 26.7008 42.9026 27.3842C42.9805 27.8137 42.966 28.2549 42.86 28.6783C42.754 29.1018 42.5591 29.4978 42.2881 29.84C41.9439 30.2333 41.5014 30.5283 41.0098 30.7004C40.9743 30.6078 40.9332 30.5175 40.8869 30.43C40.3685 29.6589 39.7933 28.9276 39.1661 28.2421L35.6262 24.2351C35.5584 24.1351 35.4716 24.0493 35.3706 23.9828C35.2697 23.9163 35.1567 23.8703 35.038 23.8475C34.7982 23.8014 34.55 23.8524 34.3479 23.9893C34.1458 24.1262 34.0063 24.3378 33.9602 24.5776C33.9141 24.8173 33.9652 25.0655 34.1021 25.2676L36.8553 29.9629C37.324 30.6184 37.7583 31.2985 38.1582 32.0032C38.3712 32.3654 38.5351 32.7506 38.6498 33.1586C38.7865 33.44 38.8268 33.7584 38.7646 34.0649C38.7024 34.3714 38.5411 34.649 38.3057 34.8548C37.9538 35.1448 37.5283 35.3312 37.0766 35.3932V35.1719C36.8159 34.6138 36.4944 34.0861 36.1178 33.5986C35.5279 32.8858 34.9625 32.1974 34.3233 31.5337C33.6842 30.87 33.0966 30.2308 32.4329 29.6187C32.2982 29.454 32.1042 29.3489 31.8927 29.3259C31.6811 29.3029 31.4691 29.3639 31.3021 29.4958C31.1358 29.6349 31.03 29.8331 31.0071 30.0487C30.9841 30.2642 31.0459 30.4803 31.1792 30.6512C31.5725 31.2412 31.9167 31.8066 32.2608 32.4211C32.605 33.0357 33.2196 34.2157 33.662 35.1498L34.3504 36.819L34.0062 37.409C33.8403 37.6746 33.6216 37.9033 33.3636 38.0809C33.1057 38.2585 32.814 38.3812 32.5067 38.4414C31.9128 38.5994 31.2814 38.5292 30.7367 38.2448C30.6351 38.1817 30.522 38.1392 30.4039 38.1199C30.2858 38.1006 30.1651 38.1047 30.0487 38.1321C29.9322 38.1595 29.8223 38.2096 29.7252 38.2796C29.6282 38.3495 29.5458 38.4379 29.483 38.5397C29.3543 38.7488 29.3131 39.0002 29.3683 39.2394C29.4236 39.4786 29.5707 39.6865 29.778 39.818C30.5681 40.503 31.5841 40.8708 32.6296 40.8505C33.5718 40.8758 34.5014 40.6297 35.3077 40.1416C36.114 39.6534 36.763 38.9438 37.1774 38.0973C37.2511 37.8547 37.3003 37.6089 37.3248 37.3598C38.17 37.4183 39.016 37.2574 39.7806 36.8927C40.5041 36.4877 41.0841 35.8683 41.4408 35.1198C41.7974 34.3713 41.9131 33.5307 41.7718 32.7137C42.6807 32.5433 43.5286 32.1363 44.2301 31.5337C44.7895 31.0235 45.2407 30.4062 45.557 29.7183C45.8733 29.0304 46.0482 28.286 46.0713 27.5292C46.0142 26.7845 45.8656 26.0497 45.6288 25.3414M58.9723 22.3202C58.9435 22.2038 58.8921 22.0942 58.8208 21.9978C58.7496 21.9013 58.66 21.8199 58.5572 21.7582C58.4544 21.6966 58.3404 21.6558 58.2218 21.6383C58.1032 21.6209 57.9823 21.627 57.866 21.6564C56.3665 21.8285 54.9161 21.8777 53.4658 22.1235C52.4801 22.2848 51.5103 22.5315 50.5675 22.861C49.484 23.2711 48.4526 23.8074 47.4947 24.4588C45.4813 25.2947 46.6834 26.9171 48.5763 26.3763L50.8625 25.9092L52.5832 25.4913L54.2794 24.9505C55.6315 24.4834 56.9589 23.9672 58.3085 23.4264C58.4249 23.3976 58.5345 23.3462 58.6309 23.2749C58.7274 23.2037 58.8088 23.1141 58.8704 23.0113C58.9321 22.9085 58.9729 22.7945 58.9904 22.6759C59.0078 22.5573 59.0017 22.4364 58.9723 22.3202Z" fill="#AA0F4E"/>
</svg>
